<mxfile host="app.diagrams.net" modified="2023-10-08T09:16:14.033Z" agent="Mozilla/5.0 (Windows NT 10.0; Win64; x64) AppleWebKit/537.36 (KHTML, like Gecko) Chrome/116.0.0.0 Safari/537.36 OPR/102.0.0.0" etag="NBSdcmWREJsYnRL8ciaI" version="22.0.4" type="google">
  <diagram name="Page-1" id="5usBm387eglsWJaQFVeR">
    <mxGraphModel grid="1" page="1" gridSize="10" guides="1" tooltips="1" connect="1" arrows="1" fold="1" pageScale="1" pageWidth="850" pageHeight="1100" math="0" shadow="0">
      <root>
        <mxCell id="0" />
        <mxCell id="1" parent="0" />
        <mxCell id="7lRZCsj5MLDu0Bl-NTnv-3" style="edgeStyle=orthogonalEdgeStyle;rounded=0;orthogonalLoop=1;jettySize=auto;html=1;entryX=0.5;entryY=0;entryDx=0;entryDy=0;" edge="1" parent="1" source="7lRZCsj5MLDu0Bl-NTnv-1" target="7lRZCsj5MLDu0Bl-NTnv-2">
          <mxGeometry relative="1" as="geometry" />
        </mxCell>
        <mxCell id="7lRZCsj5MLDu0Bl-NTnv-1" value="bắt đầu" style="ellipse;whiteSpace=wrap;html=1;" vertex="1" parent="1">
          <mxGeometry x="365" y="20" width="120" height="80" as="geometry" />
        </mxCell>
        <mxCell id="7lRZCsj5MLDu0Bl-NTnv-5" style="edgeStyle=orthogonalEdgeStyle;rounded=0;orthogonalLoop=1;jettySize=auto;html=1;entryX=0.5;entryY=0;entryDx=0;entryDy=0;" edge="1" parent="1" source="7lRZCsj5MLDu0Bl-NTnv-2" target="7lRZCsj5MLDu0Bl-NTnv-4">
          <mxGeometry relative="1" as="geometry" />
        </mxCell>
        <mxCell id="7lRZCsj5MLDu0Bl-NTnv-2" value="nhập vào&lt;br&gt;soTien = số tiền gửi vào&lt;br&gt;soNam = số năm gửi" style="shape=parallelogram;perimeter=parallelogramPerimeter;whiteSpace=wrap;html=1;fixedSize=1;" vertex="1" parent="1">
          <mxGeometry x="343" y="160" width="165" height="60" as="geometry" />
        </mxCell>
        <mxCell id="7lRZCsj5MLDu0Bl-NTnv-6" style="edgeStyle=orthogonalEdgeStyle;rounded=0;orthogonalLoop=1;jettySize=auto;html=1;entryX=0.75;entryY=0;entryDx=0;entryDy=0;" edge="1" parent="1" source="7lRZCsj5MLDu0Bl-NTnv-4" target="7lRZCsj5MLDu0Bl-NTnv-2">
          <mxGeometry relative="1" as="geometry">
            <mxPoint x="460" y="120" as="targetPoint" />
            <Array as="points">
              <mxPoint x="600" y="320" />
              <mxPoint x="600" y="120" />
              <mxPoint x="467" y="120" />
            </Array>
          </mxGeometry>
        </mxCell>
        <mxCell id="7lRZCsj5MLDu0Bl-NTnv-10" style="edgeStyle=orthogonalEdgeStyle;rounded=0;orthogonalLoop=1;jettySize=auto;html=1;entryX=1;entryY=0.5;entryDx=0;entryDy=0;" edge="1" parent="1" source="7lRZCsj5MLDu0Bl-NTnv-4" target="7lRZCsj5MLDu0Bl-NTnv-9">
          <mxGeometry relative="1" as="geometry" />
        </mxCell>
        <mxCell id="7lRZCsj5MLDu0Bl-NTnv-4" value="0&amp;lt;=soTien" style="rhombus;whiteSpace=wrap;html=1;" vertex="1" parent="1">
          <mxGeometry x="385" y="280" width="80" height="80" as="geometry" />
        </mxCell>
        <mxCell id="7lRZCsj5MLDu0Bl-NTnv-7" value="nhập lại số tiền" style="rounded=0;whiteSpace=wrap;html=1;" vertex="1" parent="1">
          <mxGeometry x="540" y="290" width="120" height="60" as="geometry" />
        </mxCell>
        <mxCell id="7lRZCsj5MLDu0Bl-NTnv-8" value="sai" style="text;html=1;strokeColor=none;fillColor=none;align=center;verticalAlign=middle;whiteSpace=wrap;rounded=0;" vertex="1" parent="1">
          <mxGeometry x="460" y="300" width="60" height="30" as="geometry" />
        </mxCell>
        <mxCell id="7lRZCsj5MLDu0Bl-NTnv-13" style="edgeStyle=orthogonalEdgeStyle;rounded=0;orthogonalLoop=1;jettySize=auto;html=1;entryX=0.5;entryY=0;entryDx=0;entryDy=0;" edge="1" parent="1" source="7lRZCsj5MLDu0Bl-NTnv-9" target="7lRZCsj5MLDu0Bl-NTnv-12">
          <mxGeometry relative="1" as="geometry" />
        </mxCell>
        <mxCell id="7lRZCsj5MLDu0Bl-NTnv-9" value="tính&amp;nbsp;&lt;br&gt;laiSuat = soTien * %&lt;br&gt;" style="rounded=0;whiteSpace=wrap;html=1;" vertex="1" parent="1">
          <mxGeometry x="170" y="290" width="150" height="60" as="geometry" />
        </mxCell>
        <mxCell id="7lRZCsj5MLDu0Bl-NTnv-11" value="đúng" style="text;html=1;strokeColor=none;fillColor=none;align=center;verticalAlign=middle;whiteSpace=wrap;rounded=0;" vertex="1" parent="1">
          <mxGeometry x="320" y="300" width="60" height="30" as="geometry" />
        </mxCell>
        <mxCell id="7lRZCsj5MLDu0Bl-NTnv-14" style="edgeStyle=orthogonalEdgeStyle;rounded=0;orthogonalLoop=1;jettySize=auto;html=1;entryX=0.5;entryY=0;entryDx=0;entryDy=0;" edge="1" parent="1" source="7lRZCsj5MLDu0Bl-NTnv-12" target="7lRZCsj5MLDu0Bl-NTnv-15">
          <mxGeometry relative="1" as="geometry">
            <mxPoint x="245" y="539.9999999999999" as="targetPoint" />
          </mxGeometry>
        </mxCell>
        <mxCell id="7lRZCsj5MLDu0Bl-NTnv-12" value="tổng số tiền gửi&lt;br&gt;tongSo = laiSuat + soTien&lt;br&gt;soTien = tongSo&lt;br&gt;soNam = soNam -1&amp;nbsp;" style="rounded=0;whiteSpace=wrap;html=1;" vertex="1" parent="1">
          <mxGeometry x="167.5" y="400" width="155" height="70" as="geometry" />
        </mxCell>
        <mxCell id="7lRZCsj5MLDu0Bl-NTnv-16" style="edgeStyle=orthogonalEdgeStyle;rounded=0;orthogonalLoop=1;jettySize=auto;html=1;" edge="1" parent="1" source="7lRZCsj5MLDu0Bl-NTnv-15">
          <mxGeometry relative="1" as="geometry">
            <mxPoint x="80" y="605" as="targetPoint" />
          </mxGeometry>
        </mxCell>
        <mxCell id="7lRZCsj5MLDu0Bl-NTnv-19" style="edgeStyle=orthogonalEdgeStyle;rounded=0;orthogonalLoop=1;jettySize=auto;html=1;" edge="1" parent="1" source="7lRZCsj5MLDu0Bl-NTnv-15">
          <mxGeometry relative="1" as="geometry">
            <mxPoint x="440" y="605" as="targetPoint" />
          </mxGeometry>
        </mxCell>
        <mxCell id="7lRZCsj5MLDu0Bl-NTnv-15" value="kiểm tra nếu&amp;nbsp;&lt;br&gt;số năm gửi &amp;gt;= 0" style="rhombus;whiteSpace=wrap;html=1;" vertex="1" parent="1">
          <mxGeometry x="177.5" y="550" width="135" height="110" as="geometry" />
        </mxCell>
        <mxCell id="7lRZCsj5MLDu0Bl-NTnv-18" style="edgeStyle=orthogonalEdgeStyle;rounded=0;orthogonalLoop=1;jettySize=auto;html=1;entryX=0.5;entryY=0;entryDx=0;entryDy=0;" edge="1" parent="1" source="7lRZCsj5MLDu0Bl-NTnv-17" target="7lRZCsj5MLDu0Bl-NTnv-9">
          <mxGeometry relative="1" as="geometry">
            <mxPoint x="240" y="250" as="targetPoint" />
            <Array as="points">
              <mxPoint x="20" y="250" />
              <mxPoint x="245" y="250" />
            </Array>
          </mxGeometry>
        </mxCell>
        <mxCell id="7lRZCsj5MLDu0Bl-NTnv-17" value="thực hiện lại thao tác" style="rounded=0;whiteSpace=wrap;html=1;" vertex="1" parent="1">
          <mxGeometry x="-40" y="575" width="120" height="60" as="geometry" />
        </mxCell>
        <mxCell id="7lRZCsj5MLDu0Bl-NTnv-20" value="xuất ra kết quả&lt;br&gt;soTien&lt;br&gt;laiSuat" style="rounded=0;whiteSpace=wrap;html=1;" vertex="1" parent="1">
          <mxGeometry x="440" y="575" width="120" height="60" as="geometry" />
        </mxCell>
      </root>
    </mxGraphModel>
  </diagram>
</mxfile>
